<?xml version="1.0" encoding="iso-8859-1"?>
<!-- Generator: Adobe Illustrator 19.0.0, SVG Export Plug-In . SVG Version: 6.00 Build 0)  -->
<svg version="1.1" id="Layer_1" xmlns="http://www.w3.org/2000/svg" xmlns:xlink="http://www.w3.org/1999/xlink" x="0px" y="0px"
	 viewBox="0 0 512 512" style="enable-background:new 0 0 512 512;" xml:space="preserve">
<path style="fill:#884E00;" d="M356.174,166.957c-9.223,0-16.696-7.473-16.696-16.696V83.478c0-9.223,7.473-16.696,16.696-16.696
	s16.696,7.473,16.696,16.696v66.783C372.87,159.484,365.397,166.957,356.174,166.957z"/>
<path style="fill:#6DC82A;" d="M473.043,83.478c0,9.22-7.475,16.696-16.696,16.696H256c-9.22,0-16.696-7.475-16.696-16.696V16.696
	C239.304,7.475,246.78,0,256,0h200.348c9.22,0,16.696,7.475,16.696,16.696V83.478z"/>
<path style="fill:#61B325;" d="M456.348,0H356.174v100.174h100.174c9.223,0,16.696-7.473,16.696-16.696V16.696
	C473.043,7.473,465.57,0,456.348,0z"/>
<path style="fill:#6A563D;" d="M473.043,384c0,9.22-7.475,16.696-16.696,16.696H55.652c-9.22,0-16.696-7.475-16.696-16.696V150.261
	c0-9.22,7.475-16.696,16.696-16.696h400.696c9.22,0,16.696,7.475,16.696,16.696V384z"/>
<path style="fill:#554431;" d="M456.348,133.565H256v267.13h200.348c9.223,0,16.696-7.473,16.696-16.696V150.261
	C473.043,141.038,465.57,133.565,456.348,133.565z"/>
<path style="fill:#AA6100;" d="M506.435,495.304c0,9.22-7.475,16.696-16.696,16.696H22.261c-9.22,0-16.696-7.475-16.696-16.696V384
	c0-9.22,7.475-16.696,16.696-16.696h467.478c9.22,0,16.696,7.475,16.696,16.696V495.304z"/>
<path style="fill:#884E00;" d="M489.739,367.304H256V512h233.739c9.223,0,16.696-7.473,16.696-16.696V384
	C506.435,374.777,498.962,367.304,489.739,367.304z"/>
<g>
	<path style="fill:#D1E7F8;" d="M189.217,233.739h-66.783c-9.223,0-16.696-7.473-16.696-16.696s7.473-16.696,16.696-16.696h66.783
		c9.223,0,16.696,7.473,16.696,16.696S198.44,233.739,189.217,233.739z"/>
	<circle style="fill:#D1E7F8;" cx="256" cy="250.435" r="16.696"/>
	<circle style="fill:#D1E7F8;" cx="256" cy="317.217" r="16.696"/>
</g>
<g>
	<circle style="fill:#C2DFF6;" cx="322.783" cy="250.435" r="16.696"/>
	<circle style="fill:#C2DFF6;" cx="389.565" cy="250.435" r="16.696"/>
	<circle style="fill:#C2DFF6;" cx="322.783" cy="317.217" r="16.696"/>
	<circle style="fill:#C2DFF6;" cx="389.565" cy="317.217" r="16.696"/>
	<path style="fill:#C2DFF6;" d="M272.696,317.217c0-9.22-7.475-16.696-16.696-16.696v33.391
		C265.22,333.913,272.696,326.438,272.696,317.217z"/>
	<path style="fill:#C2DFF6;" d="M272.696,250.435c0-9.22-7.475-16.696-16.696-16.696v33.391
		C265.22,267.13,272.696,259.655,272.696,250.435z"/>
</g>
<circle style="fill:#FFDA44;" cx="256" cy="439.652" r="16.696"/>
<path style="fill:#FFA733;" d="M272.696,439.652c0-9.22-7.475-16.696-16.696-16.696v33.391
	C265.22,456.348,272.696,448.873,272.696,439.652z"/>
<g>
</g>
<g>
</g>
<g>
</g>
<g>
</g>
<g>
</g>
<g>
</g>
<g>
</g>
<g>
</g>
<g>
</g>
<g>
</g>
<g>
</g>
<g>
</g>
<g>
</g>
<g>
</g>
<g>
</g>
</svg>
